<?xml version="1.0" encoding="utf-8"?>
<!-- Generator: Adobe Illustrator 17.1.0, SVG Export Plug-In . SVG Version: 6.00 Build 0)  -->
<!DOCTYPE svg PUBLIC "-//W3C//DTD SVG 1.1//EN" "http://www.w3.org/Graphics/SVG/1.1/DTD/svg11.dtd">
<svg version="1.1" xmlns="http://www.w3.org/2000/svg" xmlns:xlink="http://www.w3.org/1999/xlink" x="0px" y="0px"
	 viewBox="0 0 480 640" enable-background="new 0 0 480 640" xml:space="preserve">
<g id="Layer_1" display="none">
</g>
<g id="griffe-1">
	<path fill="#705760" d="M161.579,231.67c0,0,1.857-0.123,2.404,0.627c0.547,0.75-1.233-2.873-2.375-2.328
		c-1.375,0.656-0.401,0.875-0.029,1.641"/>
</g>
<g id="Layer_10">
	<path fill="#705760" d="M159.477,213.929c0,0-1.494-2.742-2.806-3.179s3.649-0.193,4.719,1.844
		c0.781,1.488-1.573,1.418-1.958,1.365"/>
</g>
<g id="Layer_11">
	<path fill="#705760" d="M162.835,212.396c0,0-0.336-3.584-1.821-3.615c-1.484-0.031,2.766-1.234,4.688,2.172
		c1.922,3.406-4.25,1.043-2.75,1.443"/>
</g>
<g id="Layer_2" display="none">
	<path display="inline" fill="#FF3333" d="M141.625,227.208c-0.167-0.291-4.604-0.271-3.604,3.958c1,4.229,3.104,1.792,3.479,2.979
		s0.542,1.104,1.146,1.646c0.604,0.541,2.646-0.208,2.938,0c0.292,0.208-0.062,0.104,0.646,0.542
		c0.709,0.438,1.521,0.188,1.521,0.188s0.166-1.125,0.062,0.417c-0.104,1.542,3.312,3.417,3.917,3.625
		c0.604,0.208,0.625,0.646,0.458,1.021s-1.354,0.479-1.438,0.312c-0.084-0.166-0.021-1.708-1.417-1.833
		c-0.554-0.05-1.451,1.182-1.479,0.917c-0.145-1.354-0.562-1.604-1.104-1.708c-0.124-0.024-0.623,0.174-1.484,0.729
		c-0.568,0.365,0.109-1.234-0.912-1.208c-1.112,0.028-2.333,4.375-2.229,4.4c0.104,0.025,1.25,0,1.25,0s0.229,0.751,0.25,0.668
		c0.02-0.083,0.547-0.469,1.333-0.213c0.932,0.303-0.373,1.472-0.165,1.581c0.167,0.088,1.3-1.165,2.05-1.181
		c0.479-0.01,0.783-0.034,0.906,0.27c0.123,0.305-0.754,1.727-0.084,1.683c1.438-0.094,2.667-0.917,3.5-1.5
		c0.833-0.583,10.292,0.354,10.292,0.354s-3.312-5.292-3.104-6.104c0.208-0.812,9.229,0,9.479,0.312s-2.411,5.178-2.849,5.241
		c0,0-0.213,2.176,0.182,2.134c0.395-0.042,3.166,0.208,4.708,0.125s-1.098-0.948,1.979-0.729c1.833,0.13,0.353,1.148,1.917,1.151
		c2.688,0.006,2.812-0.381,3.25-0.422s1.667,0.021,1.667,0.021s-0.917-0.708-0.229-1.521s0.916-0.292,1.208-0.25
		c0.292,0.042,0.542,0.333,0.855,0.188s0.312-0.812,0.688-0.875s0.687-0.145,1.083,0.083c0.396,0.229,0.73,0.167,0.73,0.167
		s-0.313-0.771,0.145-0.708c0.459,0.062,0.75-0.271,1.084,0.333c0.333,0.604,1.166,1.146,1.625,1.688
		c0.458,0.542,1.938-0.562,2-0.75s0.051-0.993-0.188-0.875c-0.64,0.317-1.812,0.507-1.271-0.896c0.378-0.98-1.892-0.561-2.604-0.592
		c-0.274-0.012-0.946-3.713-2.146-3.303c-0.68,0.232-0.453,1.298-0.702,1.418c-0.25,0.12-0.506-0.944-1.548-0.772
		c-0.384,0.063-0.708,2.058-2.749,0.662c-0.064,0.343-1.25,2.49-1.709,2.13c-0.458-0.359-1.167-0.479-0.896-0.938
		c0.271-0.458,2.25-1.917,2.25-1.917s1.438-0.351,1.875-1.292s-0.312-1.462,0.167-1.875c0.354,0.288,1.645,0.229,2.062,0.062
		c0.417-0.167,0.897,0.251,2.063-1.479c1.896-0.545,2.542-0.917,2.542-0.917s0.937-1.833,1.042-1.917
		c0.25-1.044-0.292-2.125-0.292-2.125s-2.146-2.981-3.583-3.21c-0.028-1.262-2.171-5.578-1.667-4.977"/>
	<line display="inline" fill="#FF3333" x1="167.833" y1="239.062" x2="171.844" y2="235.719"/>
	<path display="inline" fill="#FF3333" d="M178.227,236.848"/>
</g>
<g id="_patte-d">
</g>
<g id="patte-g">
</g>
<g id="main-droit">
</g>
<g id="patte-gris-d">
	<path fill="#5C4E48" d="M187.644,245.146c0,0-0.479-0.521-0.583-1.333c0.105-1.125,2.667,0.375,2.667,0.375
		s-0.758-0.02-0.792-0.333c-0.034-0.314-0.229-1.292,1.271-0.917c1.646,0.333,1.542,2.292,1.542,2.292
		c-0.188,0.25-1.833-1.105-2.021-1.042c-0.604,0.417,0.833,1.605,0.659,2.021C189.874,246.167,187.727,245,187.644,245.146
		c-0.083,0.146,0.669,1.822,0.229,1.667c-0.44-0.156-2.188-1-2.896-1.167c-0.417-0.312-0.797-0.604-0.276-1.583
		C185.223,243.083,187.644,245.146,187.644,245.146z"/>
	<path fill="#5C4E48" d="M171.394,244.934c0,0-2.295,0.762-2.005,0.394c0.359-0.456,1.062-1.59,1.062-1.59
		S171.207,244.189,171.394,244.934z"/>
</g>
<g id="Layer_7">
	<path fill="#5C4E48" d="M167.603,244.292c0,0,0.775,1.411,1.761,1.855c0.339,0.152-1.737,0.109-2.438,0.145
		C167.063,245.402,167.583,244.189,167.603,244.292z"/>
	<path fill="#5C4E48" d="M153.489,246.402l-3.032,1.077c0,0,0.771-1.063,0.792-1.542c0.021-0.479-2.516,0.515-2.688,0.917
		c-0.109,0.257-0.167-1.34,0.167-1.753c0.333-0.414-1.359,0.361-1.713,0.555c-0.355,0.194-1.344,0.438-0.521-0.261
		c0.735-0.624,1.506-2.125,1.964-2.27c0.458-0.145,0.853,0.657,1.188,0.708c0.335,0.052,1.146-0.374,1.875-0.104
		c0.729,0.27,0.437,1.145,0.437,1.145s1.708-0.562,2.042-0.167c0.333,0.396-0.419,1.702-0.419,1.702"/>
</g>
<g id="corps">
</g>
<g id="Layer_14">
	<path fill="#75625B" d="M188.853,190.311c0,0,3.533-3.825,3.5-5.644c-0.036-1.945,1-6.055-3.75-10.5
		c-0.042,1.166,0.875,8.166-4.263,12.131C184.979,186.869,188.853,190.311,188.853,190.311z"/>
	<path fill="#75625B" d="M165.988,187.925c0,0-5.336-1.119-7.472-8.148c-0.472-1.554,0.336-6.667-0.111-6.325
		c-1.415,1.08-9.876,19.461,4.63,21.077C180.228,196.443,165.988,187.925,165.988,187.925z"/>
</g>
<g id="tete">
</g>
<g id="queue">
	<path fill="#75625B" d="M146.311,224.219l1.344,2.75L146.311,224.219z"/>
</g>
<g id="bonhommme">
	<path id="bonhomme" fill="#FF0000" d="M138.342,223.969c0.562-0.062,0.75-0.122,0.938,0.001c0.188,0.124-0.093,0.66,1.219-0.783
		c0.625-0.688,0.269-0.651,0.625-0.688c0.329-0.033-0.138,2.346-0.159,2.553c0.027-0.189-0.968-0.495-1.091,0.019
		c-0.125,0.522,0,2.928,1.875,3.491s1.5-0.062,1.781-0.219c0.281-0.156-1,4.125-0.406,4.219c0.594,0.094,2.433-2.607,2.688-3.062
		c0.255-0.455-0.719-1.875-0.406-2.188s1.906-0.062,2.25-0.344c0.344-0.281-0.248-1.227-1.062-2.312
		c-0.656-0.875,1.849-1.957,1.062-3.219c-1.344-2.156-1.616-3.569-1.156-4.625c0.992-2.277,3.75-1.688,3.75-1.688
		c1.065,0.602,2.283,1.816,3.469,3.219c-0.928,1.151-1.68,2.435-2.136,3.864c-1.458,3.917-0.917,4.208-1.229,4.979
		c-0.783,0.149-7.041,3.165-2.625,7.104c0.583,0.521,1.271,0.583,2.25,0.771c0.646,0.438-0.167-0.354,0.958,1.208
		c2.5,0.875,2.295-0.083,3.148,0.062c0.079,0.013,0.149,0.054,0.215,0.106c-0.302,0.837-0.31,1.558,0.054,1.936
		c0.562,0.583,0.756,1.238,4.188,2.604c0.208,0.083-0.438,1.437-0.812,1.396s-1.979-1.833-2.188-1.792s-0.729,0.083-1.083,0.438
		s-0.938-1.229-1.688-1.396s-0.959,0.854-1.167,0.896s-0.458-1.396-1.083-1.521s-1.394,2.962-1.875,3.146
		c-0.583,0.224-1.068,1.542-1.927,3.51c0.792-0.833,1.094-1.656,1.094-1.656s0.771-0.114,1.188-0.094
		c0.417,0.02,0.167-0.281,0.646-0.073s0.854-0.25,1.875-0.104c0.708,0.458,0.292,1.063,0.375,1.188s1.896-0.604,2.104-0.208
		c0.25,0.188-0.813,1.459-0.646,1.646s2.053-0.159,3.438,0.5c1.167,0.556,2.275,0.043,2.292,0c0.167-0.438,1.438-1.295,1.792-1.313
		c0.417-0.021,0.029,0.519,1.688,0.854c1.646,0.333,4.188,0.187,4.562-0.229s0.577-1.725,0.479-1.875l-2.938-4.479
		c0,0-0.292,0.062-0.632,0.129c-0.273,0.054,0.504-0.344,0.944-0.947c0.372,0.083,7.237-0.407,8.986-0.7
		c3.058,1.069-6.669,6.642-3.132,6.642c3.851,0,9.292-0.539,9.958-0.521c0.667,0.018,3.292,2.479,3.75,1.5s-0.161-0.693,0.255-1.776
		c0.904,0.013,2.578,1.11,2.849,1.005s-0.521-1.417-0.396-1.604s1.446,0.465,1.737,0.423s-0.176-1.181,0.449-0.869
		c0.729,0.438,2.316,1.013,0.835-0.461c-0.464-0.461-0.896-3.246-2.271-4.157c-0.28-0.186-0.63,1.321-0.63,1.321
		c-0.353,0.227-0.475,0.026-0.475,0.026s-1.269-1.325-2.019,0.028c-0.714,1.289-0.917,0.688-0.917,0.688s-0.333-0.375-0.833-0.443
		c-0.5-0.068-1.167,1.11-1.75,1.568s-1.5-0.417-1.479-0.688c3.691-2.161,3.977-2.537,4.515-4.775
		c0.044,0.014,0.086,0.034,0.131,0.045c2.062,0.342,1.438-0.56,2.542-0.854c2.708,0.727,3.667-1.375,3.667-1.375
		s3.229,0.386,3.604-3.167c-0.062-2.385-1.229-3.135-3.562-3.375c0.125-2.167-1.694-6.642-1.854-7
		c-0.723-1.617-3.753-4.529-5.273-5.088c2.257-1.57,4.348-3.992,5.273-4.704c1.917-1.476-1-4.982,0.417-6.857
		s1.625-3.68,1.542-4.347s1.375-7.797-2.042-9.172c-2.75-3.029-2.25-2.625-4.977-4.297c-0.81-0.251-2.984-0.894-2.815-0.653
		c0.583,0.825,0.333,1.656,0.333,1.656s-3.25-3.875-12.208,0.25c-0.973-0.708,1.75-2.124-1.25-0.79
		c-3,1.334-5.926,6.605-4.833,13.097c0.958,5.695,2.182,0.898,2.667,2.523s-0.625,6.632-0.625,6.632s1.102-0.149,2.653-0.048
		c-0.036,0.05-0.082,0.091-0.111,0.148c-0.213,0.418-0.469,0.952-0.739,1.53c-1.269,0.374-6.843,2.159-11.03,5.739
		c-1.957-2.191-4.342-4.058-6.669-3.825c-5.375,0.539-5,5.695-5.219,6.164c-0.219,0.469-0.781-0.25-1.938,0.312
		c-1.156,0.562-1.281,2.5-0.719,2.438s-0.094,0.438-0.094,0.438s-1.344-0.312-2.219,0.156
		C138.186,222.25,137.78,224.031,138.342,223.969z M179.732,230.953c1.1-2.405-3.407-9.884-3.629-10.583
		c-0.1-0.315,0.169-1.573,0.491-2.971l6.259,4.372l1.167,4.042c0,0-3.729,1.8-3.833,3.583c0.25,1.529,0.286,1.664,0.917,2.312
		c0.212,0.098,0.414,0.454,0.637,0.923C181.031,232.013,180.311,231.414,179.732,230.953z M160.77,219.354
		c0.21-0.048,0.929-0.611,1.799-1.261c-0.875,1.217-1.819,2.649-2.453,3.953c-0.15-0.265-0.384-0.668-0.691-1.165
		C160.058,220.024,160.61,219.391,160.77,219.354z M160.102,233.499c-0.003-0.002-0.007-0.005-0.01-0.007
		c0.001,0,0.003-0.001,0.004-0.002C160.098,233.493,160.1,233.496,160.102,233.499z M157.646,223.685
		c0.925,1.402,1.526,2.406,1.526,2.406l0.002-0.008c-0.005,0.078-0.011,0.156-0.016,0.235c-0.435-0.195-0.924-0.299-1.473-0.234
		C156.646,226.206,156.932,225.061,157.646,223.685z"/>
</g>
<g id="eye-g">
	<path fill="#FFFFFF" d="M188.921,199.422c0.75-4.281-0.485-6.168-1.484-6.422c-2.516-0.641-3.942,2.891-3.38,5.781
		c0.264,1.23,0.692,1.719,2.159,2.216C186.38,201.054,188.589,201.314,188.921,199.422z"/>
</g>
<g id="eye-d">
	<path fill="#FFFFFF" d="M179.764,196.982c0.39-2.886-1.112-4.279-2.984-4.279c-1.872,0-4.553,2.192-4.406,4.578
		c0.203,3.297,1.953,3.844,3.609,4.375C177.101,202.015,179.452,199.297,179.764,196.982z"/>
</g>
<g id="mechant">
	<path fill="#FFFFFF" d="M170.929,206.308c-0.665-0.683-0.119-3.216,0.081-3.892c0.662,0.281,10.219,4.175,11.1,7.458
		C177.561,207.938,171.72,206.038,170.929,206.308z"/>
</g>
<g id="happy">
	<path fill="#FFFFFF" d="M186.978,208.396c0.907-0.021-3.385,2.438-6.583,2.438c-3.198,0-8.391-3.988-7.489-3.896
		c1.838,0.188,3.723,1.612,6.921,1.612C183.025,208.55,186.103,208.417,186.978,208.396z"/>
</g>
<g id="eye-g_1_">
	<ellipse cx="186.749" cy="197.708" rx="1.062" ry="1.125"/>
</g>
<g id="eye-g_copy">
	<ellipse cx="176.749" cy="197.708" rx="1.062" ry="1.125"/>
</g>
</svg>
